<?xml version="1.0" encoding="utf-8"?>
<!-- Generator: Adobe Illustrator 22.0.1, SVG Export Plug-In . SVG Version: 6.00 Build 0)  -->
<svg version="1.1" id="Layer_1" xmlns="http://www.w3.org/2000/svg" xmlns:xlink="http://www.w3.org/1999/xlink" x="0px" y="0px"
	 viewBox="0 0 300 300" style="enable-background:new 0 0 300 300;" xml:space="preserve">
<style type="text/css">
	.st0{fill:#F2F2F2;}
	.st1{display:none;fill:#575756;}
	.st2{fill:#282D32;}
</style>
<path class="st0" d="M52.6,299.3c-4.4,0-8.8-0.9-12.8-2.6c-3.9-1.7-7.5-4-10.5-7.1s-5.4-6.5-7.1-10.5c-1.7-4.1-2.6-8.4-2.6-12.8
	V33.7c0-4.4,0.9-8.8,2.6-12.8c1.7-3.9,4-7.5,7.1-10.5S35.8,5,39.8,3.3c4.1-1.7,8.4-2.6,12.8-2.6h193.6c4.4,0,8.8,0.9,12.8,2.6
	c3.9,1.7,7.5,4,10.5,7.1c3,3,5.4,6.5,7.1,10.5c1.7,4.1,2.6,8.4,2.6,12.8v232.7c0,4.4-0.9,8.8-2.6,12.8c-1.7,3.9-4,7.5-7.1,10.5
	c-3,3-6.5,5.4-10.5,7.1c-4.1,1.7-8.4,2.6-12.8,2.6H52.6V299.3z"/>
<path class="st1" d="M246.3,9.2H52.7c-13.5,0-24.4,10.9-24.4,24.4v232.7c0,13.5,10.9,24.4,24.4,24.4h193.6
	c13.5,0,24.4-10.9,24.4-24.4V33.7C270.7,20.2,259.8,9.2,246.3,9.2z"/>
<title>fakt_newLOGO</title>
<circle class="st2" cx="78.2" cy="120.6" r="9.3"/>
<path class="st2" d="M49.1,249.5V49c0-12.8,10.4-23.3,23.3-23.3H86c3.6,0,8.5,4.3,8.5,9.3c0,5.1-4.9,9.4-8.5,9.4H72.5
	c-2.7,0-4.7,2.1-4.7,4.7v200.4c0,5.1-4.3,9.2-9.4,9.2S49.1,254.6,49.1,249.5z"/>
<path class="st2" d="M93.9,249.5V49c0-12.8,10.4-23.3,23.3-23.3h11.6c12.8,0,23.3,10.4,23.3,23.3v200.5c0,5.1-4.3,9.2-9.3,9.2
	c-5.1,0-9.4-4.1-9.4-9.2V49.1c0-2.7-2.1-4.7-4.7-4.7h-11.5c-2.7,0-4.7,2.1-4.7,4.7v200.4c0,5.1-4.3,9.2-9.4,9.2
	C98.2,258.7,93.9,254.6,93.9,249.5z"/>
<path class="st2" d="M188.2,36.6c-3.9,25.2-9.3,52.2-12.9,67.3c-1.5,5.5-2.1,16.8-1.1,26.8c4.3,23.4,15.4,81.3,22.1,115.6
	c1.1,4.6-0.8,10.1-5.3,11.9c-4.8,2-11.2-0.3-13.5-7.3c-8.8-49.6-17.6-95.5-21.6-120.9c-0.8-5.8,1.1-23.1,2.4-29.4
	c3.3-16.3,7.3-43.2,12-65.8c0.3-1.5,0.9-2.8,1.7-4.1c2.5-3.9,5.5-5.8,9.8-4.8C186.6,27,189.2,30,188.2,36.6z"/>
<path class="st2" d="M204.4,25.7h8.7c12.8,0,23.3,10.4,23.3,23.3v200.5c0,5.1-4.3,9.2-9.3,9.2c-5.1,0-9.4-4.1-9.4-9.2V49.1
	c0-2.7-2.1-4.7-4.7-4.7h-8.6c-6.2,0-11.2-4.3-11.2-9.4C193.2,30,198.2,25.7,204.4,25.7z"/>
<ellipse class="st2" cx="244.9" cy="34.9" rx="9.3" ry="9.3"/>
<circle class="st2" cx="123.1" cy="120.3" r="9.3"/>
<path class="st2" d="M246.3,14.2c10.7,0,19.4,8.7,19.5,19.4v0.1v232.7c0,10.7-8.7,19.4-19.4,19.5h-0.1H52.7
	c-10.7,0-19.4-8.7-19.5-19.4v-0.1V33.7c0-10.7,8.7-19.4,19.4-19.5h0.1L246.3,14.2 M246.3,9.2H52.7c-13.5,0-24.4,10.9-24.4,24.4
	v232.7c0,13.5,10.9,24.4,24.4,24.4h193.6c13.5,0,24.4-10.9,24.4-24.4V33.7C270.7,20.2,259.8,9.2,246.3,9.2z"/>
<path class="st2" d="M48.2,272.6l3.2-0.2c0.2,0.5,0.6,0.9,1.2,1.1c0.6,0.3,1.4,0.4,2.4,0.4c1.1,0,1.9-0.1,2.4-0.3
	c0.6-0.2,0.8-0.5,0.8-0.8c0-0.2-0.1-0.4-0.4-0.5c-0.3-0.2-0.6-0.3-1.2-0.4c-0.4-0.1-1.3-0.2-2.7-0.4c-1.8-0.2-3-0.5-3.7-0.8
	c-1-0.5-1.5-1-1.5-1.6c0-0.4,0.3-0.8,0.7-1.1s1.2-0.6,2.1-0.8c0.9-0.2,2-0.3,3.2-0.3c2.1,0,3.6,0.2,4.6,0.7c1.1,0.5,1.6,1,1.6,1.7
	l-3.3,0.1c-0.2-0.4-0.5-0.7-0.9-0.9c-0.5-0.2-1.2-0.3-2.1-0.3s-1.7,0.1-2.3,0.3c-0.4,0.1-0.5,0.3-0.5,0.5s0.2,0.4,0.5,0.5
	c0.4,0.2,1.4,0.4,3,0.5c1.6,0.2,2.8,0.4,3.6,0.6s1.4,0.5,1.8,0.8c0.5,0.4,0.7,0.8,0.7,1.3s-0.3,0.9-0.8,1.3s-1.3,0.7-2.2,0.9
	c-1,0.2-2.1,0.3-3.6,0.3c-2.1,0-3.7-0.3-4.8-0.7C49,274.2,48.4,273.5,48.2,272.6z"/>
<path class="st2" d="M74.3,271.3c0-0.8,0.3-1.5,0.8-2c0.4-0.4,0.9-0.8,1.5-1.1c0.7-0.3,1.4-0.6,2.1-0.7c1-0.2,2.2-0.3,3.5-0.3
	c2.4,0,4.3,0.4,5.8,1.1s2.2,1.7,2.2,3s-0.7,2.2-2.2,3c-1.5,0.7-3.4,1.1-5.7,1.1c-2.4,0-4.4-0.4-5.8-1.1
	C75,273.5,74.3,272.6,74.3,271.3z M77.7,271.3c0,0.9,0.4,1.6,1.3,2s2,0.7,3.3,0.7s2.4-0.2,3.2-0.7c0.9-0.5,1.3-1.1,1.3-2
	s-0.4-1.6-1.2-2c-0.8-0.5-1.9-0.7-3.3-0.7s-2.5,0.2-3.3,0.7C78.1,269.7,77.7,270.4,77.7,271.3L77.7,271.3z"/>
<path class="st2" d="M103.5,275.2v-7.8h11.2v1.3h-7.9v1.9h6.8v1.3h-6.8v3.3L103.5,275.2z"/>
<path class="st2" d="M131.9,275.2v-6.5H127v-1.3h13v1.3h-4.8v6.5H131.9z"/>
<path class="st2" d="M155.2,275.2l-3.9-7.8h3.4l2.5,5.3l3-5.3h3.9l2.9,5.4l2.5-5.4h3.3l-4,7.8h-3.5l-3.3-5.8l-3.2,5.8H155.2z"/>
<path class="st2" d="M198.7,275.2h-3.6l-1.4-1.8h-6.5l-1.4,1.8h-3.5l6.3-7.8h3.5L198.7,275.2z M192.6,272.1l-2.3-2.9l-2.2,2.9H192.6
	z"/>
<path class="st2" d="M211.2,275.2v-7.8h7c1.8,0,3,0.1,3.8,0.2c0.8,0.2,1.4,0.4,1.9,0.8s0.7,0.8,0.7,1.2c0,0.6-0.4,1.1-1.1,1.5
	c-0.7,0.4-1.8,0.6-3.2,0.7c0.7,0.2,1.3,0.4,1.8,0.7c0.5,0.3,1.1,0.7,1.9,1.3l2,1.5h-4l-2.4-1.7c-0.9-0.6-1.4-1-1.8-1.2
	c-0.3-0.2-0.7-0.3-1-0.3c-0.4-0.1-0.9-0.1-1.7-0.1h-0.7v3.3L211.2,275.2z M214.5,270.7h2.5c1.6,0,2.6-0.1,3-0.1s0.7-0.2,0.9-0.4
	c0.2-0.2,0.4-0.4,0.4-0.6c0-0.3-0.2-0.5-0.5-0.7s-0.7-0.3-1.3-0.3c-0.3,0-1.1-0.1-2.4-0.1h-2.6L214.5,270.7z"/>
<path class="st2" d="M238.4,275.2v-7.8h12.1v1.3h-8.8v1.7h8.2v1.3h-8.2v2.1h9.1v1.3L238.4,275.2z"/>
</svg>
